<?xml version="1.0" encoding="UTF-8"?>
<svg xmlns="http://www.w3.org/2000/svg" xmlns:xlink="http://www.w3.org/1999/xlink" width="265px" height="58px" viewBox="0 0 265 58" version="1.1">
<g id="surface1">
<path style=" stroke:none;fill-rule:nonzero;fill:rgb(28.627452%,73.725492%,88.627452%);fill-opacity:1;" d="M 29.371094 16.457031 C 22.441406 16.457031 16.820312 22.09375 16.820312 29.046875 C 16.820312 35.996094 22.441406 41.628906 29.371094 41.628906 C 36.296875 41.628906 41.917969 35.996094 41.917969 29.046875 C 41.917969 22.09375 36.296875 16.457031 29.371094 16.457031 M 37.253906 31.554688 L 31.875 31.554688 L 31.875 36.976562 L 26.863281 36.976562 L 26.863281 31.554688 L 21.488281 31.554688 L 21.488281 26.53125 L 26.863281 26.53125 L 26.863281 21.105469 L 31.875 21.105469 L 31.875 26.53125 L 37.246094 26.53125 Z M 37.253906 31.554688 "/>
<path style=" stroke:none;fill-rule:nonzero;fill:rgb(28.627452%,73.725492%,88.627452%);fill-opacity:1;" d="M 29.371094 49.753906 C 18.179688 49.753906 9.027344 40.808594 8.730469 29.59375 L 8.730469 8.695312 C 1.308594 16.261719 -1.402344 27.289062 1.65625 37.449219 C 4.714844 47.613281 13.0625 55.289062 23.421875 57.46875 C 33.777344 59.652344 44.5 55.988281 51.375 47.917969 L 45.054688 42.507812 C 41.136719 47.109375 35.402344 49.757812 29.371094 49.753906 M 29.371094 0 C 25.445312 -0.00390625 21.5625 0.796875 17.960938 2.347656 L 17.839844 2.40625 C 17.324219 2.652344 17 3.175781 16.996094 3.746094 L 16.996094 12.488281 C 25.828125 5.851562 38.292969 7.355469 45.3125 15.890625 L 51.722656 10.59375 C 46.230469 3.882812 38.027344 -0.00390625 29.371094 0 "/>
<path style=" stroke:none;fill-rule:nonzero;fill:rgb(100%,75.686276%,5.490196%);fill-opacity:1;" d="M 73.460938 18.15625 C 74.589844 18.539062 75.59375 19.230469 76.359375 20.144531 C 77.042969 21.003906 77.402344 22.070312 77.382812 23.167969 C 77.402344 24.289062 77.035156 25.378906 76.34375 26.253906 C 75.621094 27.152344 74.625 27.78125 73.503906 28.054688 C 74.835938 28.273438 76.039062 28.972656 76.890625 30.015625 C 77.722656 31.078125 78.160156 32.398438 78.125 33.75 C 78.148438 34.941406 77.777344 36.113281 77.066406 37.074219 C 76.292969 38.082031 75.246094 38.839844 74.050781 39.261719 C 72.582031 39.792969 71.03125 40.050781 69.472656 40.015625 L 58.382812 40.015625 L 58.382812 17.480469 L 69.050781 17.480469 C 70.550781 17.445312 72.039062 17.675781 73.460938 18.15625 M 70.65625 25.839844 C 71.132812 25.429688 71.394531 24.816406 71.359375 24.183594 C 71.394531 23.570312 71.132812 22.984375 70.65625 22.59375 C 70.097656 22.195312 69.414062 22.003906 68.730469 22.0625 L 64.246094 22.0625 L 64.246094 26.433594 L 68.730469 26.433594 C 69.421875 26.476562 70.105469 26.265625 70.65625 25.84375 Z M 71.171875 34.796875 C 71.757812 34.390625 72.097656 33.710938 72.070312 32.996094 C 72.082031 32.3125 71.742188 31.675781 71.171875 31.308594 C 70.441406 30.855469 69.589844 30.648438 68.734375 30.710938 L 64.246094 30.710938 L 64.246094 35.441406 L 68.730469 35.441406 C 69.589844 35.484375 70.441406 35.257812 71.167969 34.796875 Z M 94.152344 23.53125 C 95.535156 24.226562 96.691406 25.308594 97.484375 26.648438 C 98.292969 28.058594 98.707031 29.664062 98.671875 31.292969 C 98.707031 32.929688 98.296875 34.546875 97.484375 35.96875 C 96.691406 37.308594 95.535156 38.390625 94.152344 39.085938 C 91 40.5625 87.359375 40.5625 84.214844 39.085938 C 82.828125 38.394531 81.671875 37.308594 80.894531 35.96875 C 80.085938 34.542969 79.675781 32.929688 79.703125 31.292969 C 79.679688 29.667969 80.089844 28.0625 80.894531 26.648438 C 81.671875 25.308594 82.828125 24.222656 84.214844 23.53125 C 87.359375 22.050781 91 22.050781 94.152344 23.53125 M 86.492188 28.234375 C 85.777344 29.113281 85.410156 30.222656 85.464844 31.355469 C 85.40625 32.496094 85.773438 33.617188 86.492188 34.503906 C 87.160156 35.296875 88.148438 35.730469 89.183594 35.695312 C 90.222656 35.738281 91.226562 35.296875 91.910156 34.503906 C 92.625 33.617188 92.988281 32.496094 92.933594 31.355469 C 92.988281 30.222656 92.621094 29.113281 91.902344 28.234375 C 91.226562 27.449219 90.230469 27.011719 89.195312 27.046875 C 88.160156 27.007812 87.164062 27.445312 86.492188 28.234375 M 114.402344 23.53125 C 115.792969 24.226562 116.949219 25.308594 117.738281 26.648438 C 118.546875 28.058594 118.957031 29.664062 118.925781 31.292969 C 118.960938 32.929688 118.550781 34.546875 117.738281 35.96875 C 116.949219 37.308594 115.792969 38.390625 114.402344 39.085938 C 111.257812 40.5625 107.613281 40.5625 104.464844 39.085938 C 103.082031 38.394531 101.929688 37.308594 101.148438 35.96875 C 100.339844 34.542969 99.929688 32.929688 99.960938 31.292969 C 99.929688 29.667969 100.34375 28.0625 101.148438 26.648438 C 101.929688 25.308594 103.082031 24.222656 104.464844 23.53125 C 107.613281 22.050781 111.257812 22.050781 114.402344 23.53125 M 106.742188 28.234375 C 106.03125 29.113281 105.667969 30.222656 105.71875 31.355469 C 105.664062 32.496094 106.027344 33.617188 106.742188 34.503906 C 107.414062 35.296875 108.40625 35.730469 109.4375 35.695312 C 110.480469 35.738281 111.484375 35.296875 112.164062 34.503906 C 112.878906 33.617188 113.242188 32.496094 113.1875 31.355469 C 113.238281 30.222656 112.867188 29.109375 112.144531 28.234375 C 111.46875 27.449219 110.472656 27.011719 109.4375 27.046875 C 108.40625 27.007812 107.414062 27.449219 106.742188 28.234375 M 132.929688 40.003906 L 129.28125 33.445312 L 127.519531 35.277344 L 127.519531 40.003906 L 121.804688 40.003906 L 121.804688 16.171875 L 127.515625 16.171875 L 127.515625 28.496094 L 133.058594 22.609375 L 139.53125 22.609375 L 133.195312 29.332031 L 139.671875 40.003906 Z M 146.695312 15.460938 C 147.265625 16.046875 147.578125 16.84375 147.546875 17.664062 C 147.570312 18.476562 147.265625 19.265625 146.695312 19.847656 C 145.484375 21.003906 143.582031 21.003906 142.371094 19.847656 C 141.800781 19.265625 141.492188 18.476562 141.519531 17.664062 C 141.488281 16.84375 141.796875 16.046875 142.371094 15.460938 C 143.585938 14.320312 145.476562 14.320312 146.695312 15.460938 M 141.746094 22.609375 L 147.414062 22.609375 L 147.414062 40.003906 L 141.746094 40.003906 Z M 167.59375 24.191406 C 168.738281 25.386719 169.308594 27.007812 169.308594 29.046875 L 169.308594 40.007812 L 163.636719 40.007812 L 163.636719 30.683594 C 163.683594 29.832031 163.398438 28.996094 162.84375 28.351562 C 162.28125 27.773438 161.5 27.464844 160.695312 27.5 C 159.828125 27.496094 158.992188 27.828125 158.371094 28.4375 C 157.742188 29.078125 157.363281 29.921875 157.296875 30.820312 L 157.296875 40.003906 L 151.59375 40.003906 L 151.59375 22.609375 L 157.296875 22.609375 L 157.296875 25.421875 C 157.867188 24.460938 158.6875 23.675781 159.671875 23.144531 C 160.710938 22.613281 161.859375 22.347656 163.023438 22.375 C 164.929688 22.382812 166.453125 22.988281 167.59375 24.191406 M 189.59375 22.609375 L 189.59375 38.464844 C 189.628906 39.960938 189.214844 41.429688 188.40625 42.691406 C 187.589844 43.914062 186.441406 44.878906 185.09375 45.472656 C 183.546875 46.160156 181.867188 46.503906 180.171875 46.480469 C 178.753906 46.484375 177.339844 46.277344 175.976562 45.871094 C 174.710938 45.5 173.511719 44.945312 172.410156 44.226562 L 174.390625 40.253906 C 175.183594 40.789062 176.042969 41.214844 176.953125 41.507812 C 177.847656 41.804688 178.785156 41.957031 179.726562 41.960938 C 180.816406 42.019531 181.890625 41.695312 182.773438 41.054688 C 183.515625 40.46875 183.929688 39.5625 183.890625 38.613281 L 183.890625 36.757812 C 182.738281 38.28125 181.09375 39.042969 178.960938 39.042969 C 176.214844 39.09375 173.699219 37.527344 172.527344 35.039062 C 171.882812 33.671875 171.558594 32.179688 171.582031 30.671875 C 171.554688 29.179688 171.863281 27.707031 172.5 26.363281 C 173.058594 25.15625 173.953125 24.140625 175.078125 23.441406 C 176.214844 22.742188 177.527344 22.386719 178.859375 22.410156 C 179.855469 22.394531 180.84375 22.597656 181.757812 23.003906 C 182.609375 23.390625 183.351562 23.984375 183.921875 24.722656 L 183.921875 22.609375 Z M 182.960938 33.734375 C 183.628906 32.914062 183.96875 31.871094 183.925781 30.8125 C 183.976562 29.742188 183.632812 28.6875 182.960938 27.851562 C 182.3125 27.128906 181.386719 26.71875 180.421875 26.71875 C 179.453125 26.71875 178.527344 27.128906 177.882812 27.851562 C 177.207031 28.679688 176.859375 29.726562 176.902344 30.792969 C 176.855469 31.855469 177.207031 32.898438 177.882812 33.714844 C 178.515625 34.457031 179.449219 34.871094 180.429688 34.839844 C 181.394531 34.882812 182.328125 34.472656 182.960938 33.734375 M 207.226562 22.917969 C 206.316406 22.398438 205.289062 22.117188 204.242188 22.097656 C 203.152344 22.089844 202.078125 22.382812 201.148438 22.953125 C 200.21875 23.523438 199.460938 24.332031 198.953125 25.300781 C 197.886719 27.390625 197.886719 29.867188 198.953125 31.953125 C 199.460938 32.921875 200.21875 33.734375 201.148438 34.304688 C 202.078125 34.875 203.152344 35.167969 204.242188 35.15625 C 205.242188 35.136719 206.230469 34.898438 207.125 34.449219 C 208.132812 33.976562 209.046875 33.320312 209.820312 32.519531 L 213.25 36.21875 C 212.007812 37.519531 210.53125 38.5625 208.890625 39.289062 C 205.371094 40.941406 201.273438 40.796875 197.882812 38.890625 C 196.121094 37.894531 194.65625 36.441406 193.652344 34.679688 C 192.617188 32.859375 192.085938 30.796875 192.117188 28.703125 C 192.050781 24.511719 194.316406 20.628906 197.996094 18.640625 C 201.429688 16.796875 205.511719 16.625 209.085938 18.171875 C 210.644531 18.828125 212.050781 19.796875 213.21875 21.019531 L 209.824219 25.136719 C 209.117188 24.226562 208.230469 23.472656 207.226562 22.917969 M 228.765625 24.042969 C 230.085938 25.144531 230.757812 26.695312 230.785156 28.6875 L 230.785156 40.003906 L 225.175781 40.003906 L 225.175781 38.046875 C 224.019531 39.523438 222.28125 40.261719 219.953125 40.261719 C 218.101562 40.261719 216.648438 39.765625 215.59375 38.769531 C 214.527344 37.746094 213.949219 36.3125 214.007812 34.832031 C 213.941406 33.347656 214.585938 31.917969 215.734375 30.988281 C 216.878906 30.066406 218.519531 29.59375 220.65625 29.574219 L 225.175781 29.574219 L 225.175781 29.378906 C 225.21875 28.632812 224.902344 27.914062 224.328125 27.445312 C 223.605469 26.953125 222.742188 26.714844 221.875 26.769531 C 221.042969 26.785156 220.222656 26.90625 219.425781 27.125 C 218.46875 27.367188 217.546875 27.710938 216.660156 28.140625 L 215.078125 24.285156 C 216.382812 23.679688 217.738281 23.199219 219.132812 22.855469 C 220.453125 22.539062 221.800781 22.382812 223.15625 22.390625 C 225.570312 22.390625 227.441406 22.941406 228.765625 24.042969 M 223.960938 35.753906 C 224.558594 35.390625 224.996094 34.808594 225.179688 34.128906 L 225.179688 32.617188 L 221.777344 32.617188 C 220.179688 32.617188 219.375 33.21875 219.375 34.417969 C 219.351562 34.96875 219.582031 35.496094 220.003906 35.847656 C 220.492188 36.226562 221.101562 36.414062 221.71875 36.382812 C 222.511719 36.398438 223.289062 36.179688 223.960938 35.753906 M 242.464844 23.195312 C 243.460938 22.648438 244.585938 22.375 245.71875 22.398438 L 245.71875 27.632812 C 245.429688 27.605469 245.140625 27.59375 244.851562 27.597656 C 243.691406 27.542969 242.539062 27.875 241.585938 28.546875 C 240.761719 29.164062 240.238281 30.105469 240.148438 31.132812 L 240.148438 40.003906 L 234.441406 40.003906 L 234.441406 22.609375 L 240.148438 22.609375 L 240.148438 25.503906 C 240.699219 24.539062 241.5 23.742188 242.464844 23.195312 M 262.164062 24.929688 C 263.675781 26.597656 264.4375 28.894531 264.441406 31.808594 C 264.441406 32.257812 264.425781 32.601562 264.40625 32.839844 L 252.355469 32.839844 C 252.574219 33.730469 253.078125 34.53125 253.796875 35.109375 C 254.515625 35.644531 255.398438 35.925781 256.296875 35.902344 C 257.039062 35.902344 257.777344 35.75 258.460938 35.449219 C 259.175781 35.136719 259.820312 34.691406 260.367188 34.132812 L 263.351562 37.125 C 262.457031 38.128906 261.34375 38.917969 260.097656 39.425781 C 258.726562 39.96875 257.265625 40.242188 255.789062 40.21875 C 254.101562 40.257812 252.429688 39.882812 250.917969 39.128906 C 249.574219 38.4375 248.464844 37.363281 247.730469 36.039062 C 246.960938 34.609375 246.582031 33.007812 246.617188 31.382812 C 246.582031 29.742188 246.96875 28.121094 247.738281 26.671875 C 248.464844 25.332031 249.5625 24.238281 250.90625 23.519531 C 252.371094 22.757812 254.007812 22.378906 255.65625 22.414062 C 258.476562 22.421875 260.644531 23.257812 262.164062 24.929688 M 258.894531 29.792969 C 258.933594 28.898438 258.617188 28.027344 258.011719 27.367188 C 256.722656 26.15625 254.714844 26.15625 253.429688 27.367188 C 252.789062 28.039062 252.375 28.894531 252.242188 29.808594 Z M 258.894531 29.792969 "/>
</g>
</svg>
